<?xml version="1.0" standalone="no"?>
<!DOCTYPE svg PUBLIC "-//W3C//DTD SVG 20010904//EN"
 "http://www.w3.org/TR/2001/REC-SVG-20010904/DTD/svg10.dtd">
<svg version="1.0" xmlns="http://www.w3.org/2000/svg"
 width="780.000000pt" height="780.000000pt" viewBox="0 0 780.000000 780.000000"
 preserveAspectRatio="xMidYMid meet">
<metadata>
Created by potrace 1.11, written by Peter Selinger 2001-2013
</metadata>
<g transform="translate(0.000000,780.000000) scale(0.100000,-0.100000)"
fill="#000000" stroke="none">
<path d="M3113 7787 c-4 -7 -8 -1165 -4 -1245 1 -9 13 -12 39 -10 l37 3 3 628
c1 345 -1 627 -5 628 -44 5 -65 3 -70 -4z"/>
<path d="M2920 7770 l-25 -6 -3 -632 c-2 -502 0 -632 10 -632 7 0 23 3 35 6
l22 6 0 629 c0 346 -3 630 -7 632 -4 2 -18 1 -32 -3z"/>
<path d="M3330 7146 l0 -634 23 -6 c12 -3 27 -6 32 -6 7 0 10 215 10 630 l0
630 -29 10 c-16 5 -31 10 -32 10 -2 0 -4 -285 -4 -634z"/>
<path d="M2713 7699 l-33 -10 0 -633 0 -634 35 11 35 10 0 634 c0 348 -1 633
-2 632 -2 0 -18 -5 -35 -10z"/>
<path d="M3540 7075 c0 -682 -3 -645 49 -645 16 0 17 43 17 630 0 347 -1 630
-1 630 0 0 -15 4 -33 9 l-32 10 0 -634z"/>
<path d="M2463 7633 l-23 -4 0 -636 0 -635 23 6 c12 3 27 6 32 6 7 0 9 213 8
622 -2 709 -1 648 -10 647 -5 -1 -18 -4 -30 -6z"/>
<path d="M3785 7005 c0 -424 3 -635 10 -635 5 0 20 -3 33 -6 l22 -6 0 631 0
631 -26 10 c-14 6 -28 10 -32 10 -4 0 -7 -286 -7 -635z"/>
<path d="M2228 7568 l-28 -10 0 -634 0 -634 28 6 c15 4 29 8 31 10 5 5 6 1263
0 1268 -2 2 -16 -1 -31 -6z"/>
<path d="M1961 7261 c-11 -7 -14 -98 -14 -530 0 -287 2 -524 5 -527 3 -3 17
-2 32 2 l26 6 0 529 c0 497 -1 529 -17 529 -10 0 -24 -4 -32 -9z"/>
<path d="M3109 6358 c0 -13 -1 -1078 -1 -2368 0 -1290 -2 -2348 -4 -2352 -4
-6 -105 43 -124 59 -3 2 -5 1050 -5 2328 0 1278 -3 2326 -7 2330 -3 4 -19 0
-35 -8 l-28 -15 0 -2291 c0 -1374 -4 -2291 -9 -2291 -11 0 -95 47 -116 66 -13
11 -15 273 -15 2243 0 1227 0 2231 -1 2231 -10 0 -64 -24 -65 -28 -1 -4 -2
-991 -3 -2194 -1 -1203 -4 -2189 -6 -2192 -3 -2 -30 11 -61 30 l-56 35 0 2145
c0 1180 -3 2147 -6 2150 -3 3 -18 -1 -34 -9 l-28 -15 0 -2104 c1 -1156 0
-2106 -2 -2111 -3 -4 -28 10 -58 30 l-54 38 -1 2063 0 2062 -27 -6 c-16 -4
-31 -9 -35 -11 -5 -2 -8 -915 -8 -2029 0 -1925 -1 -2024 -17 -2015 -10 5 -31
21 -46 35 -16 14 -34 27 -40 29 -9 3 -12 514 -12 1975 0 1085 -3 1972 -7 1972
-4 0 -18 -4 -32 -10 l-26 -10 0 -1930 c0 -1836 -1 -1930 -17 -1921 -10 5 -36
26 -58 48 l-41 38 1 1868 c0 1027 -3 1867 -7 1867 -4 0 -18 -4 -32 -10 l-26
-10 0 -1830 c0 -1800 0 -1831 -19 -1818 -62 44 -272 259 -368 378 -368 456
-375 829 -20 999 74 35 225 76 318 86 l66 7 -1 50 -1 51 -105 -7 c-58 -3 -114
-8 -125 -10 -11 -2 -42 -7 -70 -10 -259 -37 -470 -157 -548 -312 -22 -44 -28
-63 -44 -129 -15 -66 -1 -193 33 -299 93 -288 418 -680 842 -1016 l42 -33 0
-599 c0 -488 -2 -598 -13 -598 -11 0 -64 9 -143 24 -57 11 -177 52 -242 82
-183 84 -304 210 -349 363 -58 201 49 532 259 798 28 35 47 63 43 63 -26 0
-241 -284 -298 -395 -79 -152 -116 -348 -92 -480 47 -254 272 -447 629 -539
50 -13 109 -27 131 -30 80 -13 75 -4 75 -141 0 -129 3 -138 45 -126 19 6 20
15 21 126 0 74 4 119 10 118 80 -15 443 -21 589 -9 l70 5 0 -256 0 -257 26 -7
c15 -3 31 -4 36 0 5 3 9 120 8 259 0 140 2 258 5 262 3 4 34 10 70 12 l65 3
-1 -232 0 -233 36 0 36 0 -1 236 c0 129 2 238 5 242 3 4 14 8 25 9 11 1 39 4
61 8 l42 6 0 -223 c0 -123 1 -235 1 -250 1 -23 4 -26 34 -24 17 2 35 4 40 5 4
0 7 115 7 255 l0 254 43 8 c91 17 82 44 82 -259 -1 -147 3 -267 7 -267 4 0 8
-31 8 -69 l0 -70 28 3 27 3 2 343 c1 188 3 344 5 345 8 8 129 32 131 26 2 -3
3 -151 3 -328 -1 -299 0 -322 16 -327 10 -2 26 -2 36 1 16 4 17 26 17 334 0
182 2 334 5 339 8 13 110 40 152 40 22 0 37 4 33 9 -3 5 21 17 52 26 32 8 69
20 82 26 18 8 41 4 102 -16 44 -15 80 -32 80 -38 1 -7 2 -21 3 -32 1 -27 63
-31 71 -4 8 24 21 24 34 2 6 -12 20 -17 42 -15 18 1 60 -6 93 -17 104 -34 278
-79 311 -80 15 -1 16 -4 7 -10 -9 -5 -12 -25 -10 -62 l3 -54 38 -3 37 -3 0 56
c0 48 3 56 16 51 9 -3 18 -6 20 -6 2 0 4 -22 4 -48 l0 -49 38 1 c36 1 37 2 40
40 l3 39 42 -7 c113 -16 112 -15 116 -59 1 -9 17 -13 51 -13 46 -1 55 5 51 30
-1 4 18 6 41 3 24 -4 73 -9 111 -13 37 -3 67 -11 67 -16 0 -5 35 -9 83 -8 45
1 102 1 127 0 25 0 60 2 78 6 17 3 32 2 32 -3 0 -5 23 -9 50 -9 29 0 50 5 50
11 0 12 189 39 199 29 6 -5 7 -9 10 -35 0 -6 20 -9 49 -7 l47 3 -3 36 c-3 35
-2 36 55 58 248 95 367 246 366 466 0 185 -70 345 -254 585 -32 41 -79 98
-104 125 -38 41 -34 33 22 -42 85 -114 147 -221 191 -331 58 -143 71 -204 69
-306 -2 -81 -6 -99 -35 -158 -101 -205 -344 -301 -762 -303 -278 0 -475 22
-775 89 -105 24 -127 30 -112 34 14 3 17 14 17 62 l0 59 -40 -2 -40 -2 0 -52
c0 -40 -4 -53 -15 -53 -15 0 -17 6 -19 65 -1 27 -4 30 -38 33 -38 3 -38 3 -38
-33 0 -29 -3 -36 -17 -33 -10 2 -18 12 -18 23 0 32 -14 46 -40 41 -33 -6 -47
-15 -40 -27 10 -15 -12 -10 -29 6 -8 8 -27 15 -43 15 -16 0 -67 13 -113 28
l-84 28 70 28 c38 16 92 31 119 35 28 4 49 12 48 18 -1 6 7 13 17 16 12 3 20
0 20 -8 0 -16 30 -24 57 -14 15 5 19 14 16 31 -3 16 2 27 16 36 20 11 21 10
21 -22 0 -41 8 -48 48 -40 27 5 29 9 27 47 -2 41 9 67 26 67 5 0 9 -25 9 -55
l0 -56 40 3 40 2 0 61 0 62 -32 -4 c-27 -4 -22 1 27 24 33 15 107 51 165 79
58 28 110 48 115 44 9 -7 69 -14 102 -11 7 1 11 14 9 35 -4 39 1 49 32 65 22
12 22 11 22 -49 0 -60 0 -60 30 -61 17 -1 40 -2 53 -2 20 -1 22 3 22 58 l0 59
-44 3 c-24 2 -46 4 -47 6 -2 1 39 26 90 55 65 36 104 52 129 52 31 0 37 3 37
21 0 20 25 48 43 49 4 0 7 -15 7 -34 0 -41 2 -43 60 -47 l45 -4 2 58 c1 57 -4
64 -39 58 -25 -4 2 22 68 65 49 31 85 48 100 46 18 -3 24 1 24 16 0 20 29 52
47 52 5 0 9 -12 8 -27 -3 -44 3 -49 53 -52 l48 -2 0 51 c-1 48 -17 76 -37 64
-4 -2 -10 0 -14 5 -3 6 3 14 13 20 10 5 40 27 66 49 42 35 51 39 82 32 36 -8
38 -6 34 37 -1 16 15 37 52 70 62 57 238 232 288 288 56 63 152 194 204 278
160 257 204 523 119 722 -70 163 -245 309 -465 384 l-57 19 1 -37 c0 -21 -8
-53 -17 -71 -11 -22 -14 -35 -7 -38 34 -11 145 -92 191 -140 61 -63 118 -173
131 -255 38 -238 -90 -528 -371 -840 -59 -64 -74 -76 -95 -72 -78 16 -71 20
-69 -38 1 -51 0 -53 -59 -109 -34 -32 -65 -58 -69 -58 -5 0 -23 -14 -40 -32
l-32 -32 -3 36 c-3 35 -4 36 -50 40 -26 3 -48 4 -50 3 -1 -1 -4 -27 -5 -59 -3
-53 -2 -56 20 -56 36 0 28 -13 -42 -63 -47 -34 -75 -47 -99 -47 -30 0 -35 -4
-38 -26 -2 -15 -13 -33 -25 -42 -23 -14 -23 -14 -23 30 l0 45 -47 6 c-27 3
-51 3 -55 0 -5 -2 -8 -29 -8 -59 0 -55 7 -62 53 -55 33 5 -58 -66 -138 -107
-11 -5 -32 -9 -47 -7 -23 3 -28 -1 -28 -17 0 -21 -25 -47 -46 -48 -6 0 -10 16
-9 35 1 19 2 35 1 35 -1 1 -26 3 -56 6 l-55 5 0 -57 c0 -47 3 -58 19 -64 17
-5 14 -10 -20 -29 -89 -51 -189 -101 -204 -101 -6 0 -24 -9 -38 -21 -23 -18
-27 -19 -30 -5 -2 10 -14 16 -30 16 -38 0 -50 -10 -54 -45 -2 -17 -10 -31 -19
-33 -12 -2 -15 5 -14 33 2 34 1 35 -34 32 -36 -2 -36 -2 -39 -55 -2 -38 -8
-54 -22 -62 -16 -9 -18 -6 -18 33 1 71 -1 77 -23 77 -40 0 -55 -16 -53 -57 1
-21 3 -44 3 -50 1 -8 15 -13 34 -13 26 0 12 -9 -72 -46 -147 -63 -446 -174
-470 -174 -11 0 -46 12 -79 26 l-59 25 0 2450 c0 1433 -4 2454 -9 2459 -5 4
-20 10 -34 12 l-25 3 0 -2443 c0 -1586 -4 -2442 -10 -2442 -22 0 -105 35 -106
44 -1 6 -3 1102 -4 2436 -1 1334 -3 2428 -4 2432 -1 6 -32 19 -56 24 -7 1 -10
-809 -10 -2427 0 -1336 -3 -2429 -7 -2429 -24 0 -128 55 -129 69 -1 9 -2 1100
-3 2426 l-1 2410 -28 13 c-15 7 -31 11 -35 8 -4 -2 -7 -1089 -7 -2415 0 -1326
-3 -2411 -7 -2411 -4 0 -32 12 -63 27 l-55 27 -2 2396 -3 2395 -37 3 c-34 3
-38 1 -39 -20z m-1024 -4275 c30 -21 54 -46 55 -55 0 -12 8 -18 22 -18 11 0
52 -21 90 -47 l68 -47 0 -218 0 -219 33 3 32 3 5 192 5 192 55 -37 55 -37 0
-382 0 -382 22 -4 c46 -9 46 -8 46 359 -1 192 1 352 4 357 5 8 92 -39 108 -58
10 -12 14 -699 4 -709 -22 -22 -616 -26 -651 -5 -10 6 -13 122 -13 579 0 313
1 570 3 570 2 0 28 -17 57 -37z m751 -479 c35 -20 64 -39 65 -42 4 -26 3 -546
-1 -552 -6 -10 -122 -31 -130 -23 -5 5 -7 653 -2 653 2 0 33 -16 68 -36z m270
-357 l-1 -212 -62 -11 c-46 -8 -63 -8 -64 0 -3 26 -5 492 -2 497 1 4 32 -9 67
-27 l64 -34 -2 -213z m174 131 l34 -17 1 -136 c0 -77 -4 -139 -9 -143 -5 -3
-34 -11 -63 -18 l-53 -12 0 184 0 185 28 -14 c15 -7 43 -21 62 -29z m236 -110
c5 -4 10 -35 9 -70 l-1 -63 -36 -12 c-19 -6 -51 -14 -69 -18 l-34 -6 1 108 c2
59 3 111 3 115 1 6 95 -34 127 -54z m159 -63 l40 -17 -45 -13 c-25 -7 -52 -14
-60 -16 -10 -3 -14 5 -13 31 1 51 1 52 21 41 9 -5 35 -17 57 -26z"/>
<path d="M3903 3838 l2 -2353 32 -2 32 -1 0 2343 0 2343 -31 11 c-17 6 -32 11
-34 11 -1 0 -2 -1059 -1 -2352z"/>
<path d="M4803 5344 c-32 -14 -33 -16 -33 -74 l0 -60 36 15 c20 8 37 15 39 15
1 0 3 27 4 60 1 33 -2 60 -6 59 -4 0 -23 -7 -40 -15z"/>
<path d="M5005 5300 l0 -60 50 -15 c27 -8 51 -12 54 -10 2 3 5 29 6 60 l2 54
-52 16 c-29 8 -55 15 -57 15 -2 0 -3 -27 -3 -60z"/>
<path d="M4683 5295 c-32 -14 -33 -16 -33 -75 l0 -60 36 15 c20 8 38 15 40 15
2 0 4 27 4 60 0 33 -3 60 -7 60 -5 -1 -23 -7 -40 -15z"/>
<path d="M5170 5250 c0 -33 3 -60 8 -60 4 0 28 -7 54 -14 l47 -15 -2 61 -2 60
-40 14 c-63 22 -65 21 -65 -46z"/>
<path d="M4568 5248 c-26 -9 -28 -13 -28 -69 0 -32 2 -59 5 -59 3 0 21 6 39
14 32 13 33 16 32 67 -2 57 -7 62 -48 47z"/>
<path d="M5332 5204 l3 -55 53 -18 52 -18 0 62 0 63 -44 11 c-68 17 -67 17
-64 -45z"/>
<path d="M4460 5201 c-34 -15 -35 -18 -34 -69 1 -29 3 -54 5 -56 2 -2 19 3 37
10 22 10 32 21 33 37 0 12 2 31 3 43 1 11 0 28 -3 36 -5 13 -10 13 -41 -1z"/>
<path d="M5490 5162 c0 -64 -2 -62 65 -78 6 -1 17 -3 25 -5 12 -3 16 8 18 53
l3 57 -41 11 c-23 6 -48 14 -56 17 -11 4 -14 -7 -14 -55z"/>
<path d="M4350 5157 c-14 -6 -27 -12 -29 -13 -6 -5 -7 -94 -1 -104 4 -7 18 -6
38 1 32 11 34 16 34 79 0 55 0 56 -42 37z"/>
<path d="M5649 5156 c-1 -9 -1 -27 -1 -41 0 -57 2 -63 30 -69 15 -3 37 -8 50
-12 21 -6 22 -4 22 54 0 57 -1 60 -27 66 -16 3 -38 8 -50 12 -17 5 -23 2 -24
-10z"/>
<path d="M4243 5113 c-31 -16 -33 -20 -33 -70 0 -56 4 -60 45 -41 23 10 25 17
25 70 0 32 -1 58 -2 57 -2 0 -18 -8 -35 -16z"/>
<path d="M5804 5070 c1 -58 1 -58 37 -69 61 -18 65 -16 64 38 0 27 -3 52 -7
56 -3 3 -26 12 -50 20 l-44 13 0 -58z"/>
<path d="M4803 5098 c-33 -11 -33 -12 -33 -74 l0 -62 40 15 40 16 0 59 c0 32
-3 58 -7 57 -5 -1 -23 -6 -40 -11z"/>
<path d="M5006 5058 c1 -29 2 -56 3 -60 1 -8 67 -28 91 -28 13 0 16 12 15 57
l0 57 -50 13 c-28 7 -52 13 -55 13 -3 0 -5 -24 -4 -52z"/>
<path d="M4130 5065 c-22 -12 -25 -20 -25 -69 0 -31 0 -56 1 -56 1 0 17 7 36
14 34 14 35 17 34 67 -1 58 -9 65 -46 44z"/>
<path d="M5954 5025 l0 -54 45 -16 c49 -17 58 -12 55 32 -1 15 -3 38 -3 49 -1
17 -11 24 -45 33 -25 6 -46 11 -48 11 -2 0 -4 -25 -4 -55z"/>
<path d="M4688 5053 c-38 -16 -38 -16 -38 -75 0 -51 2 -59 16 -54 9 3 27 9 40
12 22 6 24 11 24 70 0 35 -1 64 -2 63 -2 -1 -20 -8 -40 -16z"/>
<path d="M5172 5007 c3 -66 -3 -60 80 -81 l28 -6 -1 55 c-2 62 -7 68 -67 83
l-43 10 3 -61z"/>
<path d="M4573 5007 c-32 -10 -33 -11 -33 -68 0 -63 2 -66 46 -46 27 11 29 16
29 64 0 28 -2 53 -5 55 -3 3 -20 0 -37 -5z"/>
<path d="M5330 4962 l0 -59 55 -15 55 -15 0 59 c0 64 -2 66 -77 83 l-33 7 0
-60z"/>
<path d="M4460 4961 c-31 -14 -35 -20 -34 -51 3 -83 0 -78 39 -66 27 8 35 16
36 36 0 14 2 34 3 46 1 11 0 28 -3 36 -5 13 -10 13 -41 -1z"/>
<path d="M5496 4973 c-3 -3 -6 -30 -6 -59 l0 -53 48 -14 c26 -7 50 -12 54 -10
5 2 7 28 7 58 -1 49 -4 54 -28 60 -14 4 -28 7 -31 7 -3 0 -12 4 -21 9 -9 4
-19 5 -23 2z"/>
<path d="M4348 4918 c-29 -10 -30 -13 -30 -73 0 -19 1 -39 1 -44 1 -5 16 -4
36 2 36 11 37 13 37 82 0 51 1 50 -44 33z"/>
<path d="M5649 4913 c-3 -27 1 -76 5 -89 2 -6 17 -14 33 -17 15 -3 36 -9 46
-12 15 -6 17 0 17 53 l0 60 -44 11 c-57 14 -56 14 -57 -6z"/>
<path d="M4238 4877 c-26 -10 -28 -15 -28 -69 0 -32 2 -58 4 -58 1 0 17 5 35
11 30 11 31 13 31 70 0 32 -3 59 -7 58 -5 -1 -20 -6 -35 -12z"/>
<path d="M5807 4883 c-2 -5 -3 -30 -2 -57 1 -47 2 -50 35 -62 65 -23 69 -21
67 42 -3 60 -4 62 -69 78 -15 3 -28 3 -31 -1z"/>
<path d="M4798 4848 c-26 -9 -28 -13 -28 -70 l0 -60 27 7 c45 11 53 24 53 81
0 58 -3 60 -52 42z"/>
<path d="M5005 4802 l0 -60 49 -11 c27 -6 52 -9 55 -6 3 3 6 29 7 56 1 55 -4
60 -78 74 l-33 6 0 -59z"/>
<path d="M4140 4837 c-14 -6 -27 -13 -30 -14 -4 -4 -9 -113 -5 -113 16 0 65
25 66 33 11 87 4 108 -31 94z"/>
<path d="M5958 4836 c-2 -6 -4 -31 -3 -55 0 -43 1 -45 44 -59 52 -17 57 -12
53 56 -4 49 -4 49 -47 59 -31 7 -45 7 -47 -1z"/>
<path d="M4683 4804 c-32 -13 -33 -17 -33 -69 0 -59 6 -64 54 -45 24 9 26 14
26 70 0 33 -3 60 -7 59 -5 0 -23 -7 -40 -15z"/>
<path d="M5170 4761 l0 -60 38 -10 c69 -20 72 -18 69 46 -2 61 3 56 -79 77
l-28 6 0 -59z"/>
<path d="M4580 4766 c-34 -12 -35 -14 -38 -73 l-3 -61 38 13 38 13 0 61 c0 34
0 61 0 60 0 0 -16 -6 -35 -13z"/>
<path d="M5335 4772 c-3 -3 -5 -29 -5 -58 l0 -53 43 -11 c23 -6 48 -13 55 -15
10 -4 12 10 10 57 l-3 61 -47 12 c-26 6 -50 10 -53 7z"/>
<path d="M4460 4721 c-34 -15 -35 -18 -33 -66 1 -27 2 -53 2 -57 1 -3 17 -1
36 5 28 8 35 16 36 36 0 14 2 35 3 47 1 11 0 28 -3 36 -5 13 -10 13 -41 -1z"/>
<path d="M5490 4676 l0 -55 48 -14 c26 -7 50 -12 55 -10 4 2 7 28 7 57 0 53 0
53 -39 64 -67 21 -71 18 -71 -42z"/>
<path d="M4341 4677 c-21 -10 -25 -19 -25 -60 -1 -27 1 -53 4 -57 3 -4 21 -1
39 9 33 15 35 19 36 69 0 57 -8 63 -54 39z"/>
<path d="M5649 4673 c-3 -46 0 -86 8 -93 4 -4 27 -12 51 -18 l42 -10 0 59 0
58 -37 10 c-52 15 -63 14 -64 -6z"/>
<path d="M4233 4638 c-20 -10 -23 -19 -23 -69 l0 -58 33 14 c30 12 32 17 35
69 3 60 -2 65 -45 44z"/>
<path d="M5804 4596 l1 -56 45 -13 c25 -8 47 -12 49 -10 3 2 5 26 6 54 1 55
-5 62 -66 74 l-36 7 1 -56z"/>
<path d="M4129 4597 c-23 -11 -25 -18 -24 -62 1 -47 2 -50 25 -47 36 4 45 18
46 72 0 53 -5 57 -47 37z"/>
<path d="M4793 4598 c-20 -10 -23 -19 -23 -70 0 -32 2 -58 5 -58 3 0 21 6 39
14 33 14 34 16 35 70 0 61 -8 67 -56 44z"/>
<path d="M5005 4555 c1 -62 2 -62 35 -68 14 -3 36 -8 50 -11 25 -7 25 -6 26
53 l0 60 -42 10 c-70 18 -71 17 -69 -44z"/>
<path d="M5953 4555 c2 -45 5 -55 22 -59 11 -3 22 -5 25 -4 3 1 15 -4 28 -11
12 -6 22 -8 23 -4 0 4 1 31 2 60 l2 52 -42 10 c-61 16 -61 16 -60 -44z"/>
<path d="M4678 4558 c-26 -9 -28 -13 -28 -70 0 -51 2 -59 16 -54 9 3 27 9 40
12 22 6 24 11 24 65 0 63 -3 66 -52 47z"/>
<path d="M5170 4511 c0 -58 0 -58 33 -64 17 -4 42 -9 55 -13 21 -6 22 -4 21
54 l-2 60 -37 11 c-67 20 -70 18 -70 -48z"/>
<path d="M4568 4518 c-26 -9 -28 -13 -28 -68 l0 -58 35 11 c19 6 36 13 36 16
1 3 2 30 3 59 2 55 -1 57 -46 40z"/>
<path d="M5332 4473 c3 -53 5 -57 33 -65 78 -21 75 -23 75 41 l0 58 -39 11
c-69 21 -72 19 -69 -45z"/>
<path d="M4460 4481 c-34 -15 -35 -18 -34 -69 1 -29 3 -55 5 -56 2 -2 20 2 39
10 35 14 36 15 33 70 -1 31 -3 57 -5 59 -2 1 -19 -5 -38 -14z"/>
<path d="M5490 4436 l0 -55 48 -14 c26 -8 50 -13 55 -10 4 2 7 28 7 58 0 58 1
58 -72 71 l-38 6 0 -56z"/>
<path d="M5649 4432 c0 -15 -2 -40 -3 -55 -2 -32 10 -42 67 -52 l37 -7 0 56
c0 31 -1 56 -2 56 -2 0 -24 7 -50 15 l-48 14 -1 -27z"/>
<path d="M4343 4440 c-24 -10 -25 -12 -26 -75 0 -38 1 -40 28 -38 39 3 45 11
48 71 4 56 -2 61 -50 42z"/>
<path d="M4243 4405 c-32 -13 -33 -16 -33 -70 0 -30 2 -55 4 -55 1 0 17 5 35
11 30 11 31 13 31 70 0 32 -1 59 -2 59 -2 -1 -18 -7 -35 -15z"/>
<path d="M5809 4416 c-1 -1 -2 -25 -3 -54 -2 -59 3 -65 65 -76 l37 -7 -2 57
-1 57 -48 12 c-26 6 -48 11 -48 11z"/>
<path d="M4135 4366 c-27 -11 -30 -17 -31 -64 -1 -55 6 -60 51 -43 17 7 20 17
20 65 0 31 -2 56 -5 56 -3 -1 -18 -7 -35 -14z"/>
<path d="M5955 4323 c0 -61 -5 -56 75 -76 25 -6 25 -5 24 50 l-2 57 -43 13
c-24 7 -46 13 -49 13 -3 0 -5 -26 -5 -57z"/>
<path d="M5007 4362 c-3 -6 -2 -77 2 -108 0 -7 16 -15 34 -18 17 -3 41 -8 52
-10 18 -4 20 2 20 55 l1 59 -41 11 c-22 5 -45 12 -52 14 -7 2 -14 1 -16 -3z"/>
<path d="M4788 4349 c-14 -8 -18 -23 -18 -69 l0 -59 38 13 c36 13 37 14 39 69
2 53 1 57 -20 57 -12 0 -30 -5 -39 -11z"/>
<path d="M4690 4315 c-34 -11 -35 -13 -38 -70 l-3 -58 33 7 c45 9 49 16 46 78
l-3 55 -35 -12z"/>
<path d="M5170 4271 l0 -60 38 -10 c69 -20 72 -18 70 46 -3 61 2 56 -80 77
l-28 6 0 -59z"/>
<path d="M4568 4277 c-26 -10 -28 -15 -28 -70 0 -54 2 -58 20 -53 11 3 28 8
38 11 15 4 18 14 16 58 -3 78 1 73 -46 54z"/>
<path d="M5330 4232 l0 -60 50 -11 c28 -6 53 -11 55 -11 3 0 5 26 5 59 0 56
-1 59 -29 64 -16 3 -40 9 -55 13 -26 6 -26 6 -26 -54z"/>
<path d="M4450 4237 c-22 -11 -25 -18 -23 -62 1 -27 2 -53 2 -57 1 -3 17 -1
36 5 35 10 37 15 37 77 0 55 -5 59 -52 37z"/>
<path d="M5492 4193 l3 -57 48 -12 c26 -7 49 -8 53 -3 3 5 4 31 3 58 -2 49 -3
50 -45 60 -65 17 -65 17 -62 -46z"/>
<path d="M4351 4206 c-32 -12 -34 -15 -35 -60 -1 -66 5 -74 47 -54 33 16 33
18 31 68 -2 29 -5 54 -6 55 -2 1 -18 -3 -37 -9z"/>
<path d="M5648 4186 c-5 -51 2 -85 20 -90 9 -2 32 -7 50 -11 l32 -7 0 59 0 59
-49 10 -49 10 -4 -30z"/>
<path d="M4238 4168 c-26 -9 -28 -13 -28 -68 l0 -58 35 11 c35 10 35 11 35 69
0 32 -3 58 -7 57 -5 0 -20 -5 -35 -11z"/>
<path d="M5807 4173 c-2 -5 -3 -30 -3 -57 1 -48 2 -49 43 -61 23 -7 45 -10 50
-6 5 3 9 28 8 55 0 39 -4 50 -20 56 -41 14 -74 20 -78 13z"/>
<path d="M4140 4137 c-14 -6 -27 -12 -29 -14 -3 -2 -6 -28 -6 -58 -2 -59 -6
-56 54 -40 15 5 18 14 17 60 -1 30 -4 56 -6 58 -3 3 -16 0 -30 -6z"/>
<path d="M5954 4091 c2 -52 7 -63 29 -67 7 -1 26 -5 42 -9 l31 -7 -2 52 c-2
29 -6 56 -11 61 -4 4 -27 11 -50 15 l-41 6 2 -51z"/>
<path d="M4803 4108 c-32 -11 -33 -12 -33 -69 0 -64 5 -68 55 -49 24 9 25 14
24 70 -1 33 -5 60 -8 59 -3 -1 -21 -6 -38 -11z"/>
<path d="M5009 4116 c-1 0 -2 -25 -3 -54 -2 -62 7 -72 65 -75 l43 -2 1 55 0
55 -52 11 c-29 7 -54 11 -54 10z"/>
<path d="M4683 4069 c-33 -9 -33 -10 -33 -70 0 -52 2 -60 16 -55 9 3 27 9 40
12 22 6 24 11 24 65 0 32 -3 59 -7 58 -5 0 -23 -5 -40 -10z"/>
<path d="M5170 4021 l0 -59 50 -11 c28 -6 52 -11 54 -11 2 0 3 27 4 59 l0 59
-43 11 c-65 16 -65 16 -65 -48z"/>
<path d="M4573 4037 c-32 -10 -33 -11 -33 -69 0 -55 1 -58 23 -54 51 10 55 14
52 72 -1 30 -4 56 -6 57 -2 2 -19 -1 -36 -6z"/>
<path d="M5335 4042 c-3 -3 -5 -29 -5 -58 0 -53 0 -53 38 -63 69 -20 72 -18
72 47 l0 58 -50 10 c-28 6 -52 8 -55 6z"/>
<path d="M4455 3997 c-31 -13 -30 -8 -26 -104 1 -20 4 -20 36 -10 35 10 37 14
37 72 0 62 1 61 -47 42z"/>
<path d="M5492 3953 c3 -56 4 -57 38 -65 19 -5 43 -10 53 -13 15 -3 17 4 17
54 l0 59 -44 11 c-68 17 -67 17 -64 -46z"/>
<path d="M4355 3967 c-16 -5 -32 -14 -35 -18 -7 -10 -4 -98 2 -105 8 -8 68 18
69 29 2 20 -1 100 -3 102 -2 1 -16 -2 -33 -8z"/>
<path d="M5649 3959 c-5 -92 3 -109 48 -109 12 0 28 -3 37 -6 14 -5 16 3 16
54 l0 60 -36 6 c-19 4 -42 10 -50 13 -9 3 -14 -2 -15 -18z"/>
<path d="M4233 3930 c-20 -8 -23 -17 -23 -65 0 -55 0 -55 28 -49 41 10 42 11
42 70 0 57 -5 61 -47 44z"/>
<path d="M5804 3886 l0 -55 42 -10 c61 -16 60 -16 60 44 -1 55 -2 56 -36 65
-62 17 -65 15 -66 -44z"/>
<path d="M4133 3903 c-25 -5 -25 -5 -27 -75 -1 -49 1 -51 44 -39 23 6 25 12
25 64 1 34 -3 56 -10 56 -5 -1 -20 -4 -32 -6z"/>
<path d="M5954 3855 c1 -30 4 -56 6 -59 3 -2 24 -7 48 -11 44 -7 44 -7 44 40
0 61 -1 64 -39 74 -60 17 -61 16 -59 -44z"/>
<path d="M4803 3859 c-32 -9 -33 -11 -33 -69 0 -65 1 -66 49 -49 30 11 31 13
31 70 0 32 -3 59 -7 58 -5 0 -23 -5 -40 -10z"/>
<path d="M5004 3810 l0 -59 42 -10 c69 -18 70 -17 69 45 0 62 -6 68 -70 77
l-40 6 -1 -59z"/>
<path d="M4690 3825 c-34 -11 -35 -13 -38 -70 l-3 -58 33 7 c45 9 49 16 46 78
l-3 55 -35 -12z"/>
<path d="M5170 3780 c0 -33 3 -61 8 -63 4 -3 29 -8 55 -12 l48 -7 -3 58 -3 59
-52 11 -53 12 0 -58z"/>
<path d="M4563 3790 c-20 -8 -23 -17 -23 -69 l0 -60 38 13 c37 13 37 14 37 67
0 58 -9 66 -52 49z"/>
<path d="M5332 3744 l3 -59 53 -11 52 -12 0 58 c0 33 -3 61 -7 63 -5 3 -30 8
-56 12 l-48 7 3 -58z"/>
<path d="M4462 3763 c-32 -6 -37 -24 -33 -110 1 -20 3 -21 34 -11 41 14 43 17
41 75 -2 49 -5 53 -42 46z"/>
<path d="M5490 3710 c0 -41 4 -60 13 -60 6 -1 31 -5 54 -9 l42 -8 0 57 -1 58
-43 11 c-65 16 -65 17 -65 -49z"/>
<path d="M4351 3726 c-34 -11 -35 -12 -35 -64 1 -28 4 -52 7 -52 35 0 44 1 56
9 13 8 23 109 11 116 -3 1 -20 -2 -39 -9z"/>
<path d="M5649 3731 c0 -6 -1 -27 -1 -46 0 -19 1 -41 1 -49 1 -8 21 -17 51
-23 l50 -10 0 58 c0 57 0 57 -32 64 -18 4 -41 9 -50 11 -10 3 -18 1 -19 -5z"/>
<path d="M4243 3698 c-33 -8 -33 -9 -33 -68 l0 -59 31 9 c18 5 34 11 36 14 2
2 3 28 1 58 l-3 54 -32 -8z"/>
<path d="M5809 3706 c-1 0 -2 -25 -3 -55 -2 -58 1 -61 70 -74 l31 -6 -1 54
c-1 30 -4 56 -7 59 -4 5 -88 25 -90 22z"/>
<path d="M4140 3667 c-34 -12 -35 -14 -36 -64 0 -47 2 -53 20 -53 40 0 51 16
52 75 0 30 0 55 0 54 -1 0 -17 -5 -36 -12z"/>
<path d="M5957 3671 c-2 -3 -3 -28 -3 -56 l1 -50 45 -11 c25 -6 47 -10 48 -8
6 4 6 103 1 108 -9 9 -89 24 -92 17z"/>
<path d="M4798 3608 c-26 -9 -28 -13 -28 -70 0 -56 1 -59 21 -53 12 4 29 8 38
10 13 1 16 15 18 63 1 66 -1 68 -49 50z"/>
<path d="M5005 3560 l0 -61 40 -6 c71 -12 69 -13 70 49 1 63 2 62 -70 73 l-41
6 1 -61z"/>
<path d="M4683 3579 c-33 -9 -33 -10 -33 -70 0 -66 -5 -62 60 -43 17 5 20 14
20 65 0 32 -3 59 -7 58 -5 0 -23 -5 -40 -10z"/>
<path d="M5170 3530 l0 -59 38 -7 c20 -4 45 -8 55 -10 16 -3 18 4 16 56 l-2
58 -43 11 c-64 16 -64 16 -64 -49z"/>
<path d="M4568 3548 c-26 -9 -28 -13 -28 -69 0 -57 1 -58 23 -50 23 9 31 11
45 11 6 0 8 56 3 108 -1 14 -6 14 -43 0z"/>
<path d="M5330 3501 l0 -60 38 -6 c20 -4 45 -9 55 -12 15 -4 17 3 17 56 l0 60
-37 6 c-21 4 -46 9 -55 12 -16 4 -18 -3 -18 -56z"/>
<path d="M4462 3523 c-32 -6 -37 -24 -33 -110 1 -19 4 -21 33 -12 40 11 44 18
42 76 -2 49 -5 53 -42 46z"/>
<path d="M5497 3523 c-4 -3 -7 -30 -7 -58 l0 -52 50 -10 c27 -6 52 -8 55 -5 3
3 5 29 5 58 0 51 -1 53 -32 59 -18 4 -40 8 -49 11 -8 2 -18 1 -22 -3z"/>
<path d="M4352 3493 c-33 -7 -42 -36 -33 -116 1 -10 64 2 71 13 9 14 4 104 -6
106 -5 0 -19 -1 -32 -3z"/>
<path d="M5649 3478 c-2 -44 -1 -90 4 -94 2 -2 25 -7 51 -10 l47 -7 -3 58 c-2
45 -7 59 -19 61 -9 1 -31 5 -48 9 -28 6 -31 4 -32 -17z"/>
<path d="M4240 3461 c-23 -6 -25 -13 -28 -65 -3 -57 -2 -58 20 -52 13 3 29 6
36 6 8 0 12 19 12 60 0 33 -3 60 -7 59 -5 -1 -19 -4 -33 -8z"/>
<path d="M5805 3412 c1 -55 3 -57 31 -63 67 -15 69 -14 70 46 1 59 1 59 -67
69 l-36 5 2 -57z"/>
<path d="M4130 3431 c-21 -6 -25 -13 -26 -51 -1 -61 5 -68 42 -59 29 8 30 11
30 61 -1 54 -6 60 -46 49z"/>
<path d="M5954 3385 c1 -50 4 -56 23 -60 13 -3 34 -7 48 -10 16 -4 25 -1 26 7
1 17 -2 103 -4 104 -1 1 -23 4 -48 8 l-46 7 1 -56z"/>
<path d="M4793 3363 c-21 -4 -23 -10 -23 -68 l0 -63 38 10 39 10 2 59 c2 63 2
63 -56 52z"/>
<path d="M5004 3312 l0 -59 53 -10 c29 -5 53 -7 54 -4 1 3 2 29 4 58 2 57 2
58 -66 68 l-44 7 -1 -60z"/>
<path d="M4673 3330 c-20 -8 -23 -17 -23 -66 l0 -56 31 6 c17 3 35 6 40 6 5 0
9 27 9 60 0 65 -7 70 -57 50z"/>
<path d="M5170 3281 c0 -51 3 -61 18 -61 9 0 34 -3 55 -6 l38 -7 -2 57 c-1 31
-6 59 -10 61 -4 3 -28 8 -53 11 l-46 7 0 -62z"/>
<path d="M5334 3306 c-3 -8 -4 -35 -2 -61 2 -39 7 -49 23 -51 11 -2 35 -6 53
-9 l32 -6 0 61 c0 47 -3 60 -15 60 -20 0 -20 0 -55 10 -23 7 -32 5 -36 -4z"/>
<path d="M4558 3303 c-15 -4 -18 -16 -18 -63 l0 -59 33 6 c17 3 34 8 37 10 2
2 5 29 5 59 1 57 -4 61 -57 47z"/>
<path d="M4467 3282 c-30 -4 -40 -18 -39 -60 0 -73 -1 -71 40 -60 l37 9 -1 55
c-1 30 -3 55 -5 57 -2 1 -17 1 -32 -1z"/>
<path d="M5497 3283 c-4 -3 -7 -30 -7 -58 l0 -52 50 -10 c27 -6 52 -8 55 -5 3
3 5 29 5 58 0 51 -1 53 -32 59 -18 4 -40 8 -49 11 -8 2 -18 1 -22 -3z"/>
<path d="M4343 3253 c-13 -2 -23 -10 -24 -16 0 -7 -2 -34 -2 -60 l-2 -48 35 6
c43 8 45 12 44 72 -1 50 -6 55 -51 46z"/>
<path d="M5649 3238 c-2 -41 -1 -90 3 -93 2 -1 24 -6 51 -9 l47 -7 0 55 c0 30
-3 57 -7 59 -5 3 -27 8 -50 12 -40 6 -43 5 -44 -17z"/>
<path d="M4228 3223 c-15 -4 -18 -16 -18 -62 l0 -58 33 6 c31 7 32 8 35 64 3
60 0 63 -50 50z"/>
<path d="M5804 3175 c1 -30 3 -55 6 -56 23 -3 59 -10 76 -14 19 -4 20 0 20 52
-1 61 -10 69 -77 72 -24 1 -25 -1 -25 -54z"/>
<path d="M4129 3199 c-24 -9 -26 -14 -24 -62 1 -51 2 -52 30 -49 17 2 33 8 36
13 5 9 5 67 0 102 -1 9 -9 8 -42 -4z"/>
<path d="M5957 3202 c-2 -4 -3 -29 -3 -57 2 -49 2 -49 41 -57 21 -5 43 -7 48
-5 5 1 10 26 11 55 1 47 -1 52 -24 57 -57 12 -70 13 -73 7z"/>
<path d="M4788 3113 c-15 -4 -18 -16 -18 -65 l0 -60 31 6 c17 3 35 6 39 6 4 0
8 27 9 60 2 57 0 60 -21 59 -13 -1 -31 -3 -40 -6z"/>
<path d="M5005 3063 c0 -62 8 -70 80 -72 l31 -1 -1 57 c0 62 -9 70 -80 72
l-31 1 1 -57z"/>
<path d="M4682 3087 c-33 -10 -33 -11 -30 -66 3 -56 3 -56 33 -52 44 5 45 7
45 72 0 32 -3 59 -7 58 -5 -1 -23 -6 -41 -12z"/>
<path d="M5170 3039 c0 -65 1 -66 68 -72 l42 -4 0 53 c0 59 -7 67 -72 77 l-38
6 0 -60z"/>
<path d="M4563 3063 c-21 -4 -23 -10 -23 -64 l0 -61 33 7 c17 4 34 9 36 11 3
3 6 29 6 59 2 58 2 58 -52 48z"/>
<path d="M5330 3011 c0 -51 3 -61 18 -61 9 0 34 -3 55 -6 l37 -7 0 62 c0 51
-3 61 -17 61 -10 0 -35 3 -55 6 l-38 7 0 -62z"/>
<path d="M4473 3039 c-13 -5 -23 -6 -23 -2 0 3 -6 1 -13 -5 -8 -7 -12 -28 -11
-49 1 -21 3 -45 3 -54 1 -14 7 -15 39 -7 l37 9 -1 55 c-1 30 -3 56 -5 58 -2 2
-14 0 -26 -5z"/>
<path d="M5496 3042 c-4 -3 -6 -29 -6 -57 l0 -52 50 -10 c28 -6 53 -7 55 -3 8
13 3 110 -6 110 -11 0 -5 -1 -51 9 -20 5 -39 6 -42 3z"/>
<path d="M4338 3013 c-19 -5 -20 -10 -20 -68 0 -55 0 -55 35 -48 38 7 43 14
41 50 -1 15 -3 38 -3 51 -1 22 -13 26 -53 15z"/>
<path d="M5649 3015 c-5 -5 -2 -106 4 -110 1 -1 23 -5 50 -8 l47 -7 0 60 c0
41 -4 60 -12 60 -7 1 -29 3 -48 6 -20 3 -38 2 -41 -1z"/>
<path d="M4240 2991 c-22 -6 -25 -13 -28 -64 -3 -60 -1 -63 46 -51 20 6 22 13
22 65 0 33 -3 59 -7 58 -5 -1 -19 -4 -33 -8z"/>
<path d="M5806 2991 c-1 -3 -2 -28 -2 -56 1 -53 12 -61 76 -64 25 -1 26 1 25
54 0 48 -3 56 -20 60 -50 10 -76 12 -79 6z"/>
<path d="M4125 2962 c-16 -6 -20 -16 -21 -59 0 -47 2 -53 20 -52 42 1 51 12
53 67 2 55 -3 59 -52 44z"/>
<path d="M5954 2920 c1 -58 11 -68 71 -69 31 -1 31 -1 29 50 -2 28 -4 53 -7
55 -2 2 -24 7 -48 10 l-45 6 0 -52z"/>
<path d="M4835 2874 c-5 -1 -22 -5 -37 -8 -27 -6 -28 -9 -28 -67 l0 -60 38 7
c20 4 38 8 40 9 8 7 -4 121 -13 119z"/>
<path d="M5005 2815 c0 -30 3 -56 5 -59 3 -2 28 -7 55 -10 l50 -7 1 59 c2 59
1 60 -28 66 -17 3 -43 6 -57 6 -27 0 -27 -2 -26 -55z"/>
<path d="M4680 2841 c-23 -6 -25 -13 -28 -65 l-3 -59 32 7 c17 3 35 6 40 6 5
0 9 27 9 60 0 63 -1 65 -50 51z"/>
<path d="M5170 2791 c0 -42 4 -61 13 -62 6 0 31 -3 55 -5 l43 -5 -2 56 c-1 31
-5 58 -9 60 -3 2 -27 7 -53 10 l-47 7 0 -61z"/>
<path d="M4570 2821 c-22 -6 -25 -13 -28 -64 -3 -61 1 -65 54 -51 18 5 21 12
19 57 -2 29 -3 55 -4 60 -1 8 -6 8 -41 -2z"/>
<path d="M5337 2823 c-4 -3 -7 -30 -7 -58 0 -51 1 -53 31 -59 74 -15 79 -12
79 49 0 36 -4 57 -12 60 -32 9 -85 15 -91 8z"/>
<path d="M4473 2799 c-13 -5 -23 -6 -23 -2 0 3 -6 1 -13 -5 -8 -7 -12 -28 -11
-49 1 -21 3 -46 3 -55 1 -10 7 -16 14 -14 6 3 23 7 37 10 23 5 25 9 24 61 -1
30 -3 57 -5 59 -2 2 -14 0 -26 -5z"/>
<path d="M5495 2802 c-8 -8 -6 -112 3 -113 4 0 16 -2 27 -4 71 -14 70 -15 73
48 2 31 -1 57 -5 57 -4 1 -27 5 -50 9 -23 5 -45 6 -48 3z"/>
<path d="M4338 2773 c-20 -5 -20 -4 -20 -58 0 -62 0 -63 30 -57 38 7 48 17 46
49 -1 15 -3 38 -3 51 -1 22 -13 26 -53 15z"/>
<path d="M5646 2732 c2 -63 5 -67 50 -70 20 -2 41 -5 46 -8 4 -3 8 22 8 55 0
34 -1 61 -2 61 -2 1 -26 3 -53 6 l-50 5 1 -49z"/>
<path d="M4233 2753 c-21 -4 -23 -10 -23 -62 l0 -57 35 4 35 4 0 59 c0 61 0
61 -47 52z"/>
<path d="M5805 2706 c0 -30 3 -57 5 -59 9 -8 90 -15 91 -9 4 23 4 104 -1 107
-3 2 -26 6 -51 10 l-45 7 1 -56z"/>
<path d="M4130 2731 c-22 -6 -24 -12 -25 -64 -1 -60 -1 -60 61 -42 13 4 13
108 -1 111 -5 1 -21 -1 -35 -5z"/>
<path d="M5955 2683 l0 -58 45 -6 c25 -4 47 -5 49 -3 2 2 4 26 4 54 0 28 -2
52 -4 54 -2 2 -24 6 -49 10 l-46 7 1 -58z"/>
<path d="M4805 2621 c-29 -6 -30 -8 -33 -69 l-3 -63 28 7 c15 3 34 7 41 10 13
4 18 110 5 117 -5 2 -21 1 -38 -2z"/>
<path d="M5013 2622 c-7 -4 -11 -30 -10 -60 2 -57 3 -58 77 -64 l35 -3 0 45
c1 69 -2 76 -42 78 -20 2 -39 5 -43 7 -3 2 -11 1 -17 -3z"/>
<path d="M4719 2606 c-2 -3 -18 -6 -34 -9 -29 -3 -30 -5 -33 -63 l-3 -60 41 4
40 4 0 64 c0 61 -1 69 -11 60z"/>
<path d="M5170 2546 c0 -60 1 -62 28 -65 81 -8 77 -12 80 52 2 35 -1 57 -8 57
-5 0 -13 1 -17 2 -5 1 -25 5 -45 8 l-38 7 0 -61z"/>
<path d="M4573 2578 c-33 -8 -33 -9 -33 -68 0 -43 3 -58 13 -56 6 3 24 7 39
10 25 6 27 9 24 61 -1 30 -4 56 -7 58 -2 2 -19 0 -36 -5z"/>
<path d="M5330 2526 c0 -59 3 -62 70 -68 l35 -3 3 54 c4 63 -4 71 -65 71 l-43
0 0 -54z"/>
<path d="M4460 2556 c-33 -10 -35 -14 -34 -51 3 -78 1 -74 33 -65 16 4 32 6
34 4 8 -8 12 49 7 87 l-5 36 -35 -11z"/>
<path d="M5492 2507 c3 -56 5 -60 28 -64 14 -2 37 -5 53 -7 27 -4 27 -4 26 55
-1 36 -6 59 -13 59 -6 1 -30 5 -54 9 l-43 8 3 -60z"/>
<path d="M5649 2534 c-3 -54 -1 -95 4 -101 4 -3 27 -8 52 -10 l45 -5 0 56 c0
31 -4 56 -10 56 -5 0 -11 0 -12 0 -2 1 -20 5 -40 9 -30 7 -38 6 -39 -5z"/>
<path d="M4324 2528 c-8 -11 -9 -40 -5 -95 1 -8 14 -13 31 -13 33 0 49 23 44
64 -1 11 -3 29 -3 39 -1 20 -53 24 -67 5z"/>
<path d="M4223 2513 c-8 -3 -13 -25 -13 -59 0 -47 3 -54 19 -54 43 0 51 10 51
66 0 50 -2 54 -22 53 -13 0 -29 -3 -35 -6z"/>
<path d="M5804 2465 c0 -30 1 -55 1 -55 0 0 23 -3 51 -6 l51 -6 -1 54 c0 29
-4 56 -8 59 -5 3 -28 6 -52 8 l-43 2 1 -56z"/>
<path d="M4138 2502 c-16 -2 -29 -6 -29 -10 -1 -4 -2 -31 -3 -60 l-1 -54 29 6
c15 3 32 6 36 6 8 0 7 108 -1 113 -2 1 -16 1 -31 -1z"/>
<path d="M4798 2373 c-27 -4 -28 -7 -28 -64 l0 -60 38 3 37 4 3 62 c2 46 0 62
-10 61 -7 -1 -25 -4 -40 -6z"/>
<path d="M5009 2376 c-6 -5 -4 -103 2 -112 5 -6 31 -11 57 -13 l50 -2 -3 56
c-1 30 -4 57 -6 59 -4 3 -97 15 -100 12z"/>
<path d="M1534 2338 l-19 -23 23 19 c21 18 27 26 19 26 -2 0 -12 -10 -23 -22z"/>
<path d="M4678 2353 c-27 -4 -28 -6 -28 -65 l0 -60 31 6 c17 3 35 6 40 6 5 0
9 27 9 60 0 42 -4 60 -12 59 -7 -1 -25 -4 -40 -6z"/>
<path d="M5170 2300 c0 -41 4 -60 13 -61 6 0 31 -2 54 -5 l42 -6 0 56 c-1 31
-4 58 -8 60 -3 2 -27 7 -53 10 l-48 7 0 -61z"/>
<path d="M4563 2333 c-21 -4 -23 -10 -23 -64 l0 -61 33 7 c45 10 43 8 43 67
-1 55 -6 60 -53 51z"/>
<path d="M5330 2280 c0 -55 2 -60 23 -61 12 0 37 -2 55 -4 l32 -3 0 57 0 58
-37 7 c-74 12 -73 12 -73 -54z"/>
<path d="M4460 2318 c-37 -9 -37 -9 -31 -113 1 -6 16 -9 35 -7 38 4 46 25 36
92 -5 35 -6 36 -40 28z"/>
<path d="M5492 2263 c3 -60 0 -58 73 -65 30 -3 30 -3 32 53 3 63 -4 69 -75 69
l-33 0 3 -57z"/>
<path d="M4380 2306 c-3 -3 -19 -6 -35 -9 -27 -3 -29 -7 -28 -40 2 -76 2 -77
26 -77 35 0 45 12 50 56 4 39 -4 80 -13 70z"/>
<path d="M4238 2283 c-27 -4 -28 -7 -28 -63 0 -50 2 -58 18 -55 9 2 25 4 35 4
14 1 17 11 17 61 0 33 -3 59 -7 59 -5 -1 -20 -4 -35 -6z"/>
<path d="M4120 2262 c-10 -5 -15 -23 -15 -60 l-1 -52 33 2 c18 1 34 5 34 8 1
3 2 29 3 58 2 47 0 52 -18 51 -12 0 -28 -3 -36 -7z"/>
<path d="M4793 2123 c-21 -4 -23 -10 -23 -65 l0 -60 38 6 c20 3 38 5 40 6 1 0
2 27 2 60 0 64 0 64 -57 53z"/>
<path d="M5009 2123 c-2 -7 -5 -112 -4 -114 0 0 25 -2 55 -5 l56 -5 -1 55 c0
30 -3 57 -5 59 -10 9 -100 18 -101 10z"/>
<path d="M4663 2103 c-12 -4 -19 -104 -8 -114 2 -3 20 -3 40 -1 l35 4 0 59 c0
58 -1 59 -27 58 -16 0 -34 -3 -40 -6z"/>
<path d="M5170 2051 l0 -61 45 0 c25 0 48 0 53 0 4 0 7 26 7 57 l0 58 -52 3
-53 4 0 -61z"/>
<path d="M4568 2093 c-27 -4 -28 -7 -28 -64 0 -55 2 -59 23 -58 44 1 52 11 52
68 0 57 -3 60 -47 54z"/>
<path d="M4440 2071 c-14 -6 -15 -13 -11 -96 1 -18 6 -20 36 -17 19 2 35 8 36
13 1 5 1 20 1 34 0 68 -2 73 -24 72 -13 0 -30 -2 -38 -6z"/>
<path d="M4348 2063 c-17 -3 -28 -11 -29 -21 -6 -107 -5 -108 46 -94 23 7 29
13 28 35 -1 15 -1 41 -2 57 -1 17 -4 29 -8 29 -5 -1 -20 -4 -35 -6z"/>
<path d="M4223 2043 c-8 -3 -13 -25 -13 -59 l0 -55 33 3 c32 3 32 4 35 61 3
54 2 57 -20 56 -13 0 -29 -3 -35 -6z"/>
<path d="M4130 2030 c-21 -5 -24 -12 -25 -50 -2 -61 2 -69 33 -64 36 7 37 9
38 64 1 52 -6 60 -46 50z"/>
<path d="M5956 2030 c-1 -3 -2 -27 -2 -55 l1 -50 45 -6 c25 -4 47 -5 50 -3 3
1 5 15 4 31 -1 15 -3 40 -3 54 -1 25 -5 27 -47 31 -25 2 -47 1 -48 -2z"/>
<path d="M4783 1873 c-9 -3 -13 -26 -13 -64 0 -56 1 -59 23 -55 12 3 30 5 40
5 14 1 17 11 17 59 0 58 -1 59 -27 59 -16 0 -34 -1 -40 -4z"/>
<path d="M4678 1863 c-27 -4 -28 -7 -28 -64 l0 -60 38 3 37 4 3 62 c2 46 0 62
-10 61 -7 -1 -25 -4 -40 -6z"/>
<path d="M4547 1843 c-4 -3 -7 -31 -7 -60 l0 -54 37 3 37 3 2 58 2 57 -32 0
c-18 0 -36 -3 -39 -7z"/>
<path d="M4439 1830 c-10 -6 -14 -21 -13 -47 1 -21 3 -45 3 -54 1 -13 8 -15
38 -10 36 6 36 7 36 51 -1 25 -1 51 -2 58 -1 14 -39 16 -62 2z"/>
<path d="M4348 1823 c-28 -4 -30 -8 -30 -65 -1 -47 7 -56 43 -49 28 6 33 11
32 34 -1 15 -1 41 -2 57 -1 17 -4 29 -8 29 -5 -1 -20 -4 -35 -6z"/>
<path d="M5649 1807 c-2 -31 0 -90 3 -92 2 -1 24 -5 51 -7 l47 -6 0 59 c0 57
-1 59 -27 60 -16 0 -38 2 -50 5 -18 3 -23 -1 -24 -19z"/>
<path d="M4243 1812 l-33 -3 0 -58 0 -59 30 3 c17 1 33 5 36 8 3 2 4 29 2 58
l-3 54 -32 -3z"/>
<path d="M5804 1755 c1 -48 4 -55 21 -56 11 0 34 -2 50 -4 l31 -3 0 59 0 59
-51 0 -52 0 1 -55z"/>
<path d="M4114 1793 c-6 -5 -10 -30 -10 -58 1 -53 1 -53 62 -46 7 1 11 22 10
54 -1 48 -3 52 -26 55 -14 1 -30 -1 -36 -5z"/>
<path d="M5954 1745 c0 -42 4 -55 16 -56 8 -1 30 -3 48 -5 34 -4 34 -5 34 66
0 17 -1 34 -1 38 -1 5 -23 9 -49 11 l-49 2 1 -56z"/>
<path d="M5330 1550 c0 -59 1 -60 28 -61 15 0 39 -2 55 -3 27 -2 27 -1 27 55
0 63 -2 64 -67 68 l-43 2 0 -61z"/>
<path d="M5490 1542 l0 -60 51 -4 c28 -1 53 -1 55 1 7 8 4 111 -3 112 -5 0
-29 3 -55 5 l-48 5 0 -59z"/>
<path d="M4330 1580 c-14 -8 -17 -32 -11 -103 1 -5 18 -7 38 -5 33 3 37 6 36
31 -1 15 -1 41 -2 57 -1 24 -5 30 -23 30 -13 0 -30 -5 -38 -10z"/>
<path d="M5649 1552 c-8 -75 -3 -82 52 -82 l49 0 0 58 0 57 -49 2 -49 2 -3
-37z"/>
<path d="M4214 1571 c-2 -2 -4 -28 -4 -58 l0 -53 35 0 35 0 0 59 0 59 -31 -2
c-17 0 -32 -3 -35 -5z"/>
<path d="M5806 1571 c-2 -3 -2 -28 -2 -56 l2 -50 49 0 50 0 1 53 c0 30 -4 52
-10 53 -58 5 -87 5 -90 0z"/>
<path d="M4125 1562 c-17 -6 -20 -16 -20 -60 l-1 -53 35 3 36 3 0 55 c0 58 -8
66 -50 52z"/>
<path d="M5957 1563 c-4 -7 -3 -83 2 -105 0 -5 21 -8 46 -8 40 0 45 3 46 23 0
12 2 32 3 44 1 12 0 27 -4 33 -8 13 -87 24 -93 13z"/>
<path d="M5006 1380 c-1 -3 -2 -30 -1 -60 l0 -55 55 -3 56 -3 -1 58 0 58 -53
5 c-30 3 -54 3 -56 0z"/>
<path d="M4770 1319 l0 -60 38 3 37 3 3 58 3 57 -41 0 -40 0 0 -61z"/>
<path d="M5170 1315 l0 -62 55 -2 55 -2 -1 61 c-2 57 -3 60 -28 61 -14 1 -38
2 -53 3 -28 3 -28 2 -28 -59z"/>
<path d="M5343 1363 c-8 -3 -13 -25 -13 -59 0 -36 4 -54 13 -55 6 0 31 -2 55
-3 l42 -2 0 58 c0 48 -3 58 -17 59 -10 0 -29 2 -43 3 -14 2 -31 1 -37 -1z"/>
<path d="M5490 1300 l0 -58 38 -4 c69 -6 73 -3 71 58 -1 30 -5 54 -8 55 -3 0
-27 2 -53 4 l-48 2 0 -57z"/>
<path d="M5649 1312 c-8 -75 -3 -82 52 -82 l49 0 0 58 0 58 -49 1 -49 2 -3
-37z"/>
<path d="M5809 1338 c-5 -10 -4 -108 1 -109 3 0 25 -2 50 -4 l45 -5 0 58 0 57
-47 3 c-27 2 -49 2 -49 0z"/>
<path d="M5953 1275 c2 -51 3 -55 27 -56 14 0 35 -2 48 -3 18 -2 22 3 23 26 4
89 5 88 -50 88 l-49 0 1 -55z"/>
<path d="M4803 1132 l-33 -3 0 -60 0 -60 38 3 37 3 3 54 c2 30 0 57 -5 60 -4
4 -23 5 -40 3z"/>
<path d="M5006 1083 c1 -32 2 -60 3 -63 0 -3 25 -5 53 -5 l53 1 0 57 c0 63 -1
64 -70 66 l-41 2 2 -58z"/>
<path d="M5170 1070 c0 -62 0 -62 50 -62 63 0 61 -2 58 59 l-3 57 -52 3 -53 4
0 -61z"/>
<path d="M5332 1063 l3 -57 53 -3 52 -3 0 60 0 60 -55 0 -56 0 3 -57z"/>
<path d="M5496 1112 c-3 -3 -6 -29 -6 -59 0 -57 -2 -55 65 -55 14 0 29 0 35 1
5 1 9 26 7 57 l-2 57 -47 2 c-26 2 -49 0 -52 -3z"/>
<path d="M5649 1073 c-7 -73 -3 -80 51 -82 l50 -1 0 60 0 60 -49 0 -49 0 -3
-37z"/>
<path d="M5809 1102 c-1 -4 -2 -31 -3 -59 l-2 -53 43 0 c24 0 46 1 50 3 4 1 8
26 9 55 1 46 -1 52 -20 53 -11 0 -33 2 -48 4 -16 2 -29 1 -29 -3z"/>
<path d="M4540 831 l0 -60 37 3 37 2 1 54 0 55 -37 3 -38 3 0 -60z"/>
<path d="M4130 861 c-22 -6 -25 -12 -26 -59 l-1 -53 36 3 c35 3 36 4 37 48 0
48 -4 71 -15 69 -3 -1 -17 -4 -31 -8z"/>
<path d="M4217 863 c-4 -3 -7 -30 -7 -60 l0 -53 35 0 35 0 0 60 c0 59 0 60
-28 60 -16 0 -32 -3 -35 -7z"/>
<path d="M4317 823 c1 -27 2 -53 2 -59 1 -12 24 -15 56 -9 16 3 20 11 19 32
-1 15 -3 40 -3 56 -1 24 -4 27 -38 27 l-38 0 2 -47z"/>
<path d="M4540 659 l0 -60 38 3 37 3 0 58 0 57 -37 0 -38 0 0 -61z"/>
<path d="M5518 702 c-27 -3 -28 -6 -28 -58 0 -44 3 -54 18 -55 9 -1 34 -2 54
-3 l37 -2 0 58 c-1 36 -6 58 -13 59 -6 0 -18 1 -26 3 -8 1 -27 0 -42 -2z"/>
<path d="M4210 639 l0 -59 35 0 35 0 0 58 0 57 -35 1 -35 1 0 -58z"/>
<path d="M4318 693 c-2 -5 -3 -30 -3 -58 l1 -50 37 -2 c39 -1 39 -2 39 77 0
11 0 25 -1 30 -1 12 -68 14 -73 3z"/>
<path d="M4104 638 l1 -53 35 -3 35 -3 0 56 1 55 -36 0 -36 0 0 -52z"/>
<path d="M5006 602 c1 -31 2 -59 3 -62 1 -7 101 -8 102 -1 1 5 5 110 4 112 0
0 -25 3 -55 5 l-56 4 2 -58z"/>
<path d="M4655 631 c-3 -2 -5 -28 -5 -58 0 -40 4 -53 15 -54 63 -5 60 -8 63
57 l3 60 -36 0 c-20 0 -38 -2 -40 -5z"/>
<path d="M5140 578 c0 -32 3 -58 8 -59 4 0 27 -1 52 -2 l45 -1 0 59 0 59 -52
1 -53 1 0 -58z"/>
<path d="M5342 631 c-9 -5 -12 -26 -10 -62 l3 -53 38 1 c72 2 68 -2 65 60 l-3
57 -40 3 c-22 1 -46 -2 -53 -6z"/>
<path d="M5649 618 c-1 -23 -1 -86 0 -95 1 -5 24 -8 51 -8 l50 0 0 58 c0 55
-1 57 -27 58 -16 0 -38 2 -50 3 -16 2 -23 -3 -24 -16z"/>
<path d="M4210 468 l0 -58 35 0 35 0 0 58 0 58 -35 -1 -35 0 0 -57z"/>
<path d="M4319 523 c-1 -11 -1 -85 0 -100 1 -8 15 -13 36 -13 33 0 35 2 36 35
1 19 2 45 2 58 1 19 -4 22 -36 25 -20 2 -37 0 -38 -5z"/>
<path d="M4105 463 c0 -32 3 -57 8 -55 4 1 20 2 35 2 27 0 28 1 27 55 l0 55
-35 0 -35 0 0 -57z"/>
<path d="M4540 430 l0 -59 35 1 c39 1 37 -1 40 68 l1 50 -38 0 -38 0 0 -60z"/>
<path d="M5496 472 c-9 -8 -7 -112 2 -113 4 0 27 -1 52 -2 l45 -1 3 57 3 57
-33 1 c-18 0 -41 2 -50 4 -9 2 -19 0 -22 -3z"/>
<path d="M5156 462 c-14 -3 -16 -13 -14 -60 l3 -57 40 -1 c62 -1 65 2 65 65
l0 56 -38 0 c-21 0 -46 -1 -56 -3z"/>
<path d="M5347 462 c-13 -3 -17 -15 -17 -58 0 -30 3 -55 8 -55 4 -1 28 -2 55
-3 l47 -2 0 58 c0 32 -3 58 -7 59 -32 3 -72 3 -86 1z"/>
<path d="M5819 442 c-13 -2 -16 -14 -15 -53 1 -64 6 -67 91 -60 14 1 14 111 0
112 -48 4 -62 4 -76 1z"/>
<path d="M4439 422 c-12 -2 -15 -13 -11 -55 2 -29 5 -54 8 -56 5 -6 54 -4 61
2 3 3 5 29 6 58 0 48 -2 52 -24 53 -13 1 -31 0 -40 -2z"/>
<path d="M5954 315 c-1 -59 -4 -56 66 -59 29 -1 37 18 32 75 l-4 39 -47 0 -46
0 -1 -55z"/>
<path d="M4210 232 c0 -55 1 -58 23 -56 12 1 28 3 35 3 8 1 12 19 12 56 l0 55
-35 0 -35 0 0 -58z"/>
<path d="M5012 233 l3 -58 50 0 50 0 3 58 3 57 -56 0 -56 0 3 -57z"/>
<path d="M5332 233 l3 -58 50 0 50 0 3 58 3 57 -56 0 -56 0 3 -57z"/>
<path d="M4770 203 l0 -63 40 0 41 0 -3 61 -3 62 -38 1 -37 1 0 -62z"/>
<path d="M5679 263 c-4 -30 -3 -81 2 -93 6 -14 17 -15 87 -11 8 1 12 19 12 56
l0 55 -50 0 c-27 0 -51 -3 -51 -7z"/>
<path d="M5806 218 c1 -29 2 -55 3 -58 1 -3 16 -4 33 -3 18 1 40 2 49 2 12 1
15 13 15 56 l0 55 -51 0 -52 0 3 -52z"/>
<path d="M5502 242 c-7 -2 -12 -25 -12 -58 0 -56 0 -56 50 -56 62 0 61 -2 59
57 -1 30 -5 55 -8 56 -21 4 -79 5 -89 1z"/>
<path d="M4540 150 l0 -60 35 0 c19 0 36 3 36 8 1 4 2 31 3 60 l2 52 -38 0
-38 0 0 -60z"/>
<path d="M4431 168 c-3 -9 -5 -37 -3 -61 4 -41 5 -43 34 -41 16 1 32 4 34 7 3
3 6 28 7 55 2 50 2 50 -32 54 -25 3 -35 0 -40 -14z"/>
<path d="M5172 96 l3 -61 50 0 50 0 3 60 3 60 -56 1 -56 0 3 -60z"/>
<path d="M5330 66 c0 -60 6 -66 71 -66 l39 0 0 60 0 60 -55 0 -55 0 0 -54z"/>
</g>
</svg>
